<svg xmlns="http://www.w3.org/2000/svg" width="598" height="201" viewBox="0 0 598 201" fill="none">
<path d="M242.5 198.041L237.5 195.154V200.928L242.5 198.041ZM596.5 0V54.9923H597.5V0H596.5ZM577 74.4923H21V75.4923H577V74.4923ZM0.5 94.9923V178.041H1.5V94.9923H0.5ZM21 198.541H238V197.541H21V198.541ZM0.5 178.041C0.5 189.363 9.67816 198.541 21 198.541V197.541C10.2304 197.541 1.5 188.811 1.5 178.041H0.5ZM21 74.4923C9.67817 74.4923 0.5 83.6705 0.5 94.9923H1.5C1.5 84.2227 10.2305 75.4923 21 75.4923V74.4923ZM596.5 54.9923C596.5 65.7618 587.77 74.4923 577 74.4923V75.4923C588.322 75.4923 597.5 66.3141 597.5 54.9923H596.5Z" fill="#6B2FE4"/>
</svg>