<svg xmlns="http://www.w3.org/2000/svg" width="578" height="216" viewBox="0 0 578 216" fill="none">
<path d="M3.64645 215.354C3.84171 215.549 4.15829 215.549 4.35355 215.354L7.53553 212.172C7.7308 211.976 7.7308 211.66 7.53553 211.464C7.34027 211.269 7.02369 211.269 6.82843 211.464L4 214.293L1.17157 211.464C0.976311 211.269 0.659728 211.269 0.464466 211.464C0.269204 211.66 0.269204 211.976 0.464466 212.172L3.64645 215.354ZM396.843 1.5H557V0.5H396.843V1.5ZM576.5 21V119.503H577.5V21H576.5ZM557 139.003H24V140.003H557V139.003ZM3.5 159.503V215H4.5V159.503H3.5ZM24 139.003C12.6782 139.003 3.5 148.181 3.5 159.503H4.5C4.5 148.733 13.2304 140.003 24 140.003V139.003ZM576.5 119.503C576.5 130.272 567.77 139.003 557 139.003V140.003C568.322 140.003 577.5 130.824 577.5 119.503H576.5ZM557 1.5C567.77 1.5 576.5 10.2304 576.5 21H577.5C577.5 9.67816 568.322 0.5 557 0.5V1.5Z" fill="#6B2FE4"/>
</svg>